<svg width="20" height="10" viewBox="0 0 20 10" fill="none" xmlns="http://www.w3.org/2000/svg">
<path d="M1.41477 9H0.306818L3.51136 0.272727H4.60227L7.80682 9H6.69886L4.09091 1.65341H4.02273L1.41477 9ZM1.82386 5.59091H6.28977V6.52841H1.82386V5.59091ZM9.76278 9.06818C9.55256 9.06818 9.37216 8.9929 9.22159 8.84233C9.07102 8.69176 8.99574 8.51136 8.99574 8.30114C8.99574 8.09091 9.07102 7.91051 9.22159 7.75994C9.37216 7.60937 9.55256 7.53409 9.76278 7.53409C9.97301 7.53409 10.1534 7.60937 10.304 7.75994C10.4545 7.91051 10.5298 8.09091 10.5298 8.30114C10.5298 8.44034 10.4943 8.56818 10.4233 8.68466C10.3551 8.80114 10.2628 8.89489 10.1463 8.96591C10.0327 9.03409 9.90483 9.06818 9.76278 9.06818Z" fill="black"/>
<path d="M19.3913 0.272727V9H18.3686L13.6129 2.14773H13.5277V9H12.4709V0.272727H13.4936L18.2663 7.14205H18.3516V0.272727H19.3913Z" fill="#F59D18"/>
</svg>
